<svg width="22" height="30" viewBox="0 0 22 30" fill="none" xmlns="http://www.w3.org/2000/svg">
<path d="M10.2791 28.6281C8.78213 26.4826 7.50779 24.6879 6.42358 23.1609C4.48125 20.4255 3.14911 18.5493 2.24029 17.0553C1.53858 15.9018 1.10849 15.0055 0.850472 14.1442C0.593639 13.2868 0.5 12.4395 0.5 11.375C0.5 5.6504 5.19559 1 11 1C16.8044 1 21.5 5.6504 21.5 11.375C21.5 12.4395 21.4064 13.2868 21.1495 14.1442C20.8915 15.0055 20.4614 15.9018 19.7597 17.0553C18.8509 18.5493 17.5187 20.4255 15.5764 23.161C14.4921 24.688 13.2177 26.4829 11.7206 28.6286C11.3732 29.124 10.6262 29.1238 10.2791 28.6281ZM11 16.4062C13.8021 16.4062 16.0833 14.1591 16.0833 11.375C16.0833 8.59093 13.8021 6.34375 11 6.34375C8.19794 6.34375 5.91667 8.59093 5.91667 11.375C5.91667 14.1591 8.19794 16.4062 11 16.4062Z" fill="#D66C3D" stroke="#D66C3D"/>
</svg>
