<svg width="23" height="22" viewBox="0 0 23 22" fill="none" xmlns="http://www.w3.org/2000/svg">
<path d="M20.5344 0.759995H3.24865C2.6235 0.759995 2.02395 0.997047 1.5819 1.419C1.13985 1.84096 0.89151 2.41326 0.89151 3.00999L0.89151 19.51C0.89151 20.1067 1.13985 20.679 1.5819 21.101C2.02395 21.5229 2.6235 21.76 3.24865 21.76H20.5344C21.1595 21.76 21.7591 21.5229 22.2011 21.101C22.6432 20.679 22.8915 20.1067 22.8915 19.51V3.00999C22.8915 2.41326 22.6432 1.84096 22.2011 1.419C21.7591 0.997047 21.1595 0.759995 20.5344 0.759995V0.759995ZM19.7295 15.168L18.9929 18.2148C18.9555 18.3697 18.8642 18.508 18.7339 18.607C18.6036 18.706 18.442 18.7599 18.2754 18.76C10.4183 18.76 4.03437 12.6798 4.03437 5.16624C4.04021 5.00877 4.09885 4.85724 4.20166 4.73396C4.30447 4.61068 4.44602 4.52215 4.60548 4.4814L7.79745 3.77828C7.8519 3.76729 7.9073 3.76116 7.96294 3.75999C8.10538 3.76686 8.2433 3.80999 8.36239 3.88492C8.48147 3.95985 8.57737 4.06383 8.64013 4.18609L10.1133 7.46734C10.1494 7.55581 10.1695 7.64948 10.1728 7.74437C10.1608 7.95251 10.0638 8.14789 9.90267 8.28859L8.042 9.74171C9.16941 12.0226 11.0926 13.8584 13.4821 14.9345L15.0044 13.1584C15.1518 13.0046 15.3565 12.9121 15.5745 12.9006C15.674 12.9037 15.7721 12.9229 15.8648 12.9573L19.3023 14.3636C19.4304 14.4234 19.5394 14.5149 19.6179 14.6286C19.6964 14.7423 19.7416 14.874 19.7487 15.01C19.7477 15.0631 19.7413 15.116 19.7295 15.168Z" fill="url(#paint0_linear)"/>
<defs>
<linearGradient id="paint0_linear" x1="0.89151" y1="11.4743" x2="22.8915" y2="11.4743" gradientUnits="userSpaceOnUse">
<stop stop-color="#007885"/>
<stop offset="1" stop-color="#00A98B"/>
</linearGradient>
</defs>
</svg>
