<svg width="23" height="25" viewBox="0 0 23 25" fill="none" xmlns="http://www.w3.org/2000/svg">
<path d="M21.848 1.39956L17.3793 0.274558C16.8937 0.152683 16.3953 0.429245 16.1976 0.92612L14.1351 6.17612C13.9547 6.63549 14.075 7.17455 14.4316 7.48862L17.0355 9.81361C15.4886 13.4089 12.7859 16.3995 9.42146 18.1199L7.29021 15.2792C6.99802 14.8902 6.50817 14.7589 6.08708 14.9558L1.27458 17.2058C0.814815 17.4261 0.5613 17.9699 0.673018 18.4995L1.70427 23.3745C1.81169 23.8808 2.22419 24.2464 2.70974 24.2464C13.714 24.2464 22.6472 14.5199 22.6472 2.49643C22.6472 1.97143 22.3164 1.51674 21.848 1.39956Z" fill="#D66C3D"/>
</svg>
