<svg width="21" height="24" viewBox="0 0 21 24" fill="none" xmlns="http://www.w3.org/2000/svg">
<path d="M20.4286 14.2496C20.4286 19.6355 15.8567 23.9996 10.2143 23.9996C4.57187 23.9996 0 19.6355 0 14.2496C0 9.3746 3.74688 5.33398 8.64286 4.61679V2.9996H7.26786C6.94375 2.9996 6.67857 2.74648 6.67857 2.4371V0.562103C6.67857 0.252728 6.94375 -0.000396729 7.26786 -0.000396729H13.1607C13.4848 -0.000396729 13.75 0.252728 13.75 0.562103V2.4371C13.75 2.74648 13.4848 2.9996 13.1607 2.9996H11.7857V4.61679C13.6272 4.88867 15.3067 5.62929 16.6817 6.70742L18.0321 5.41835C18.2629 5.19804 18.6362 5.19804 18.867 5.41835L20.2567 6.74492C20.4875 6.96523 20.4875 7.32148 20.2567 7.54179L18.8129 8.91992L18.7835 8.94804C19.8246 10.4668 20.4286 12.2902 20.4286 14.2496ZM11.7857 15.9371V8.83554C11.7857 8.52617 11.5205 8.27304 11.1964 8.27304H9.23214C8.90804 8.27304 8.64286 8.52617 8.64286 8.83554V15.9371C8.64286 16.2465 8.90804 16.4996 9.23214 16.4996H11.1964C11.5205 16.4996 11.7857 16.2465 11.7857 15.9371Z" fill="#D66C3D"/>
</svg>
