<?xml version="1.0" encoding="utf-8"?>
<!-- Generator: Adobe Illustrator 24.1.3, SVG Export Plug-In . SVG Version: 6.00 Build 0)  -->
<svg version="1.1" id="Layer_1" xmlns="http://www.w3.org/2000/svg" xmlns:xlink="http://www.w3.org/1999/xlink" x="0px" y="0px"
	 viewBox="0 0 1280 720" style="enable-background:new 0 0 1280 720;" xml:space="preserve">
<style type="text/css">
	.st0{fill:#BF3577;}
</style>
<g transform="translate(0.000000,720.000000) scale(0.100000,-0.100000)">
	<path class="st0" d="M6313,6788c-30-29-66-74-79-100c-22-43-24-60-24-185v-139l-57-56c-169-164-409-233-635-182
		c-69,16-75,20-166,106c-124,118-174,142-295,143c-82,0-90-2-109-25c-17-21-19-36-16-105c4-112,42-187,148-295
		c105-107,114-135,108-339c-5-167-4-164-147-496c-95-223-114-261-127-258c-6,1-46,11-89,22c-138,37-324,25-463-29
		c-240-93-438-310-522-575c-32-100-40-345-15-466c34-170,108-304,239-435c98-97,176-151,310-215c90-42,292-114,384-136
		c30-7,13-14-165-67c-109-32-261-72-338-89c-123-26-161-30-310-30c-176-1-287,13-447,53c-104,27-128,26-128-4c0-29,144-170,240-236
		l65-45l-90-6c-49-4-601-7-1225-8c-1060-2-1805-12-1857-27c-35-10-29-40,10-48c69-15,509-25,1157-27c371,0,1028-5,1460-9l785-7
		l86-26c130-38,248-51,406-44c226,10,411,63,750,216c227,102,306,130,443,156c105,21,337,25,405,8c31-7,2-10-130-9
		c-248,0-341-25-690-184c-234-107-337-146-465-179c-89-22-105-30-105-46c0-26,98-75,219-109c69-20,110-26,190-26
		c181,0,269,30,541,179c203,112,287,154,350,175c73,23,237,46,335,46h85l-34-17c-103-51-123-235-34-315c81-74,242-58,300,30
		c49,74,36,197-27,257c-16,16-30,32-30,37c0,25,274-4,380-40c70-24,221-100,327-164c124-74,280-146,368-168c106-27,254-27,360,0
		c74,19,220,84,232,103c10,17-22,33-116,61c-110,32-273,96-496,193c-313,138-427,167-650,167c-112-1-132,1-100,9
		c76,19,291,13,400-11c145-31,199-51,444-162c346-157,489-197,751-207c173-6,274,7,421,53l83,26l961-1c931-1,2263,14,2375,27
		c46,6,56,11,58,28c2,13-4,24-15,28c-38,15-891,27-2016,27l-1167,1l52,39c29,21,69,49,88,63c50,34,190,181,190,199c0,22-43,29-88,13
		c-76-27-227-55-359-67c-230-20-428,9-787,117c-100,30-197,57-216,61c-30,6-25,8,40,14c154,13,479,153,622,267
		c100,80,201,199,243,287c81,169,115,422,81,595c-19,94-80,254-121,319c-35,57-166,193-238,248c-67,52-175,104-267,129
		c-99,27-321,25-415-4c-38-12-72-18-75-14c-4,4-21,48-40,97c-18,50-66,166-107,260c-41,93-84,203-94,245c-34,129-25,305,19,395
		c8,17,49,64,91,105c103,101,134,163,139,280c4,79,2,90-17,109c-18,18-33,21-104,21c-134,0-173-16-283-121c-122-116-154-131-304-137
		c-148-6-213,7-328,64c-69,33-113,64-167,115l-73,70l-4,142c-3,135-4,145-32,195c-16,29-51,73-77,97C6412,6857,6386,6856,6313,6788z
		 M6673,6072c86-52,206-100,277-111c174-28,385-4,563,65c19,7,17-1-45-148c-20-47-22-71-23-223c0-228,14-284,145-580
		c75-168,133-315,127-322c-3-2-15,22-27,54c-30,81-106,258-140,323c-30,60-69,170-103,295c-18,66-21,105-21,220c1,121,4,152,27,228
		c15,48,27,92,27,97c0,15-29,12-116-12c-108-29-332-31-449-4c-145,33-239,86-367,204c-40,37-95,86-122,109c-26,23-45,46-42,51
		c3,4,56-41,119-102S6643,6090,6673,6072z M6361,6271c-14-25-164-165-217-202c-96-66-203-108-314-124c-58-8-132-15-165-15
		c-73,0-225,24-284,45c-24,8-47,15-52,15c-15,0-10-33,18-137c53-193,32-388-66-633c-66-163-194-451-198-446c-6,5,62,175,129,319
		c58,127,68,155,109,287c53,171,49,387-11,538c-17,40-30,82-30,92c0,17,4,17,60-6c98-39,226-57,380-51c146,5,223,23,330,77
		c81,41,211,141,266,205C6367,6293,6377,6302,6361,6271z M6447,6120c91-101,277-205,451-252c90-24,289-29,386-10c33,7,61,11,62,9
		c2-2-2-34-8-72c-16-107-5-292,26-409c14-54,64-188,111-297c96-223,155-373,155-396c0-8-13-33-29-56c-76-111-150-309-137-363
		c7-28,37-32,57-8c21,26,64,44,80,33c8-5,25-9,38-9c20,0,22-3,17-27c-12-49-93-207-135-263c-125-167-420-407-691-562
		c-153-88-417-228-429-228c-29,0-417,214-588,324c-291,188-496,377-591,546c-31,54-95,201-90,205c2,1,19,5,39,9c27,5,46,0,83-19
		c56-30,86-32,86-7c0,24-55,202-78,256c-11,24-36,69-56,100s-36,66-36,78c0,26,90,254,166,419c106,231,129,338,122,565
		c-3,82-8,156-12,165c-6,14-1,15,51,7c80-13,366-3,428,15c153,44,319,139,414,238c31,32,58,58,59,59C6400,6170,6422,6148,6447,6120z
		 M7774,4283c-56-235-225-457-514-680c-109-83-238-170-327-219c-28-16-111-63-185-106c-73-42-182-100-241-129l-109-52l-161,80
		c-194,97-551,309-668,398c-46,34-111,89-144,120c-67,64-62,61,80-51c145-115,160-125,291-205c259-157,566-319,604-319
		c45,0,467,231,699,384c352,231,576,484,637,718c9,35,18,69,20,76C7763,4324,7780,4309,7774,4283z M4900,4134c12-38,50-121,84-184
		c57-107,71-125,206-261c147-148,217-205,415-341c172-118,686-405,765-428c46-13,78,0,352,151c318,174,392,219,578,353
		c165,118,360,300,441,411c70,96,147,259,172,364l22,93l43-6c54-7,153-54,214-100c40-31,148-173,148-195c0-4-28,6-62,23
		c-52,26-76,32-149,34c-98,4-197-12-206-34c-3-9,15-38,46-72c29-31,64-81,78-111c59-123-2-276-157-391c-159-117-357-206-550-247
		c-278-58-397-95-542-169c-130-66-316-211-368-287l-24-35l-86,81c-97,93-213,174-353,248c-134,70-233,104-408,140
		c-191,39-305,75-445,144c-198,96-346,230-375,338c-14,53-7,153,14,194c9,17,39,55,67,86c76,83,67,99-65,118c-87,12-157,1-242-37
		c-29-12-53-19-53-15c0,5,18,36,40,68c79,118,182,192,304,217l61,13l6-47C4875,4224,4888,4172,4900,4134z"/>
	<path class="st0" d="M5716,5543c-16-4-18-12-14-55c3-27,10-54,15-59c6-6,45-16,88-22c58-9,79-17,88-32s13-201,15-688l3-669l-56-59
		c-48-50-56-64-53-91l3-33l250-3c308-3,600,11,675,33c92,28,170,76,251,155c86,84,123,148,145,249c18,86,18,156-2,240
		c-33,146-124,229-309,282c-47,13-56,18-40,24c134,48,224,124,278,234c28,58,31,74,32,155c0,115-21,161-110,244c-48,45-78,65-126,81
		c-61,20-77,21-588,20C5972,5548,5727,5546,5716,5543z M6565,5366c92-39,120-100,113-243c-8-160-75-236-232-264c-75-13-131-6-140,17
		s-7,499,2,508C6321,5398,6522,5384,6565,5366z M6555,4664c32-11,68-35,101-69c61-60,74-105,74-244c0-118-26-202-81-264
		c-49-57-98-73-241-80c-92-5-96-4-102,16c-3,12-6,168-6,346v324l103-6C6460,4684,6527,4674,6555,4664z"/>
	<path class="st0" d="M4754,5146c-49-22-59-76-24-133c17-29,25-33,64-33c61,0,96,29,96,80c0,52-8,68-41,85
		C4815,5163,4794,5163,4754,5146z"/>
	<path class="st0" d="M7953,5150c-53-22-68-106-27-151c24-27,107-26,134,1c26,26,27,99,3,129C8043,5153,7986,5164,7953,5150z"/>
	<path class="st0" d="M3779,4661c-64-66-98-111-123-164c-50-101-86-250-86-351c0-90,22-240,44-303l15-41l-42,19c-53,24-81,23-134-1
		c-55-24-83-70-83-133c0-54,10-79,49-120c65-71,152-77,203-13c19,23,24,61,8,71c-5,3-27-4-48-17c-38-21-41-21-66-5
		c-14,10-32,30-40,45c-19,36-3,72,37,86c39,14,72-7,192-120c55-52,106-94,112-94c26,0,12,52-41,154c-62,121-93,225-105,360
		c-23,235,30,409,180,594c38,48,68,93,67,102c-2,8-14,17-27,18C3871,4751,3849,4734,3779,4661z"/>
	<path class="st0" d="M8890,4727c0-12,30-63,66-112c136-183,179-315,172-518c-7-180-44-302-143-477c-27-46-30-90-7-98
		c7-2,50,32,95,76c138,133,194,164,231,126c24-23,19-68-10-103c-31-37-39-38-86-6s-58,31-58-1c0-64,45-103,117-104c45,0,58,5,88,32
		c100,87,98,219-5,270c-39,20-121,24-151,8c-23-13-23-13-2,80c10,49,16,124,17,215c1,221-35,345-141,483
		C8976,4724,8890,4785,8890,4727z"/>
	<path class="st0" d="M3466,4569c-53-42-22-120,48-122c45-1,76,28,76,72c0,32-8,44-37,60C3521,4595,3496,4593,3466,4569z"/>
	<path class="st0" d="M9238,4574c-36-19-45-56-24-90c33-49,100-48,132,2c19,28,11,57-23,84C9293,4594,9275,4595,9238,4574z"/>
	<path class="st0" d="M3257,4438l-40-42l5-90c4-65,12-108,30-151l25-60l-82-88l-81-88l-82-8c-91-9-127-28-175-89
		c-44-58-61-131-53-239l6-93h-97c-118,0-167,12-205,51c-63,62-83,7-23-60c55-60,87-71,236-78l131-6l76-76c45-45,103-90,139-109
		c59-31,67-33,155-30c93,3,93,3,96,30c3,29-13,68-28,68c-6,0-10-9-10-20c0-29-55-26-127,5c-55,25-152,107-175,149c-10,18-7,19,59,13
		c82-7,136-27,178-66c32-31,66-51,86-51c21,0,2,71-29,109c-24,30-27,40-19,59c8,18,6,27-15,50c-50,53-97,179-83,223
		c10,29,18,23,55-38c18-32,38-64,43-70c14-19,47,3,47,30c0,27-43,121-75,163l-24,31l47,56c26,32,56,64,68,71c19,14,23,13,43-14
		c30-42,161-131,186-128c30,5,30,35-1,61c-15,12-57,50-92,84l-64,62l33,57c30,54,33,64,32,149c0,110-24,175-72,199
		C3330,4491,3301,4485,3257,4438z M3077,3783c-9-80,27-233,55-233c4,0,8-6,8-14s12-24,28-35l27-21l-37,15c-25,10-72,15-138,15
		c-118,0-115-3-115,110c1,118,44,183,132,200c21,4,40,8,42,9C3081,3829,3080,3809,3077,3783z"/>
	<path class="st0" d="M9412,4460c-41-25-72-92-79-169c-6-67,8-125,42-175c14-20,25-43,25-51c0-15-49-67-119-127c-46-40-49-61-10-66
		c31-4,134,63,168,108l23,32l45-43c24-24,53-59,65-77c18-29,19-35,5-50c-21-24-53-90-66-136c-8-32-7-46,5-73c20-42,31-42,39,0
		c9,42,54,124,71,131c10,4,14-5,14-33c0-65-26-129-75-186c-46-54-50-75-16-75c15,0,12-7-15-35c-44-47-53-97-28-145
		c12-22,26-35,39-35c29,0,32,33,3,37c-21,3-19,8,32,60c62,63,99,78,200,78h64l-44-46c-93-95-191-145-276-142c-39,1-54-8-54-32
		c0-27,30-40,90-40c107,0,264,85,343,186l42,54h129c109,0,136,3,171,20c64,31,125,88,125,116c0,35-30,31-97-13l-56-38h-116h-115
		l3,97c4,130-15,195-73,253c-49,48-92,65-176,66h-55l-83,89l-82,88l25,78c48,141,34,263-35,299C9471,4485,9452,4484,9412,4460z
		 M9835,3787c39-39,55-89,55-173c0-91-7-96-138-105c-61-4-116-11-123-15s1,10,19,32c46,58,61,103,69,204l6,90h39
		C9794,3820,9809,3813,9835,3787z"/>
	<path class="st0" d="M3005,4075c-14-13-25-33-25-45c0-34,44-70,84-70c30,0,38,5,52,31c13,26,13,36,3,60
		C3097,4105,3045,4116,3005,4075z"/>
	<path class="st0" d="M9692,4077c-40-43-17-101,44-113c47-9,78,25,70,75C9796,4101,9734,4122,9692,4077z"/>
	<path class="st0" d="M2636,4056c-48-18-103-70-115-110c-6-17-13-52-17-78l-6-47l-27,19c-14,11-53,29-86,40c-122,43-272,36-381-16
		c-68-33-194-152-194-184c0-38,28-33,91,16c34,26,93,61,133,77c62,27,83,31,166,32c91,0,210-24,210-43c0-4-16-17-35-29
		c-54-35-68-65-69-142c0-73,12-101,44-101c22,0,30,19,30,68c0,58,29,105,73,120c50,16,72,6,197-93c52-41,103-75,113-75
		c35,0,17,45-52,131c-109,135-128,188-97,263c17,40,60,76,92,76c37,0,65-52,57-108c-6-42-5-44,18-40c44,6,65,98,35,156
		C2780,4058,2711,4084,2636,4056z"/>
	<path class="st0" d="M10044,4056c-17-8-40-26-52-41c-41-51-23-185,24-185c10,0,14,12,14,40c0,22,7,56,14,75c12,28,21,35,41,35
		c39,0,80-34,99-82c32-79,2-148-119-276c-52-56-65-76-60-92c11-36,47-23,135,50c134,111,183,128,241,81c20-16,25-31,29-93
		c5-78,17-92,55-64c17,12,20,26,20,94c0,71-3,83-23,105c-13,14-37,31-53,37c-16,7-29,16-29,20c0,18,138,45,225,45c79,0,98-4,155-30
		c36-16,93-51,128-77c118-90,142-47,35,63c-78,81-154,123-257,140c-113,19-274-9-347-62l-26-18l-6,60c-7,80-39,128-108,163
		C10120,4073,10090,4076,10044,4056z"/>
	<path class="st0" d="M2346,4028c-53-76,35-155,108-97c40,32,34,79-15,104C2399,4056,2364,4054,2346,4028z"/>
	<path class="st0" d="M10340,4030c-26-26-26-81-2-103c33-30,115-14,127,24C10488,4022,10393,4083,10340,4030z"/>
	<path class="st0" d="M2015,3571c-17-11-41-39-54-62c-19-34-23-52-19-108c4-85,31-124,106-158c76-36,139-29,240,24
		c88,47,156,81,192,97c17,8,25,20,25,36c0,24-3,25-57,25c-49,0-71-8-148-48s-99-47-147-47c-53,0-58,3-95,40c-21,23-38,48-38,56
		c0,23,55,74,80,74c33,0,82-28,116-67c22-25,37-34,48-30c22,9,15,35-27,100c-39,63-63,78-134,83C2056,3590,2039,3587,2015,3571z"/>
	<path class="st0" d="M10640,3574c-66-29-110-86-110-144c0-39,22-39,49-1c27,37,81,71,114,71c27,0,77-50,77-76c0-27-28-70-56-84
		c-50-27-103-19-210,33c-56,26-127,52-163,58c-58,11-66,10-78-7c-7-10-13-21-13-25s30-19,68-34c37-14,99-46,139-71
		c134-83,220-96,309-45c64,37,88,82,88,167C10854,3552,10756,3624,10640,3574z"/>
	<path class="st0" d="M3443,3463c-61-6-69-21-55-96c18-87,82-213,140-274c99-103,215-159,352-169c91-7,310,10,365,28
		c39,13,40,14,43,64c3,51,3,52-45,86c-26,19-103,87-170,150c-179,170-250,201-493,211C3528,3465,3466,3465,3443,3463z"/>
	<path class="st0" d="M9139,3460c-180-14-243-45-421-210c-57-53-129-117-160-144c-56-47-72-79-45-89c10-4,10-6,0-6
		c-22-2-14-37,10-48c90-41,385-52,507-20c194,52,345,225,371,425c6,46,10,85,8,86C9399,3463,9223,3466,9139,3460z"/>
	<path class="st0" d="M1760,3440c-23-23-26-68-7-93c6-9,27-21,45-26c27-8,36-6,62,16c56,47,28,123-45,123
		C1793,3460,1772,3452,1760,3440z"/>
	<path class="st0" d="M10927,3442c-21-23-22-71-1-100c20-29,83-31,109-2s24,79-4,102C11001,3465,10948,3465,10927,3442z"/>
	<path class="st0" d="M2444,3326c-92-34-149-71-254-164c-52-47-103-92-112-100c-15-13-23-11-65,9c-108,54-343,7-343-67
		c0-25,2-26,43-20c124,17,193,18,230,3c35-15,37-18,25-37c-18-29-104-86-157-105c-59-20-100-19-165,6c-88,32-101,8-33-59
		c42-41,44-42,112-42c118,1,154,15,287,112l56,41l79-67c43-38,98-78,123-91c86-43,190-41,190,4c0,15-13,24-52,37c-29,9-69,25-88,34
		c-39,20-170,136-170,152c0,15,98,107,181,168c96,71,166,102,249,108c76,5,123-11,324-110c103-50,126-58,177-58c78,0,111,13,107,43
		c-2,18-10,22-43,25c-91,6-142,24-248,88c-157,95-208,114-309,113C2527,3349,2489,3343,2444,3326z"/>
	<path class="st0" d="M10070,3327c-30-13-106-53-168-89c-94-55-127-69-185-78c-117-19-117-19-117-40c0-26,36-40,98-40
		c66,0,122,19,258,89c65,33,149,68,186,77c63,16,70,16,120-1c122-40,193-83,293-177l98-93l-74-69c-48-44-97-79-139-98
		c-109-49-113-53-84-83c14-14,29-16,70-12c70,7,139,44,226,122c40,36,78,65,84,65s18-7,25-16c19-23,123-92,172-114
		c81-37,227-19,277,35c44,47,1,71-73,40c-56-23-114-19-183,14c-61,28-134,85-134,103c0,5,17,16,38,25c30,12,58,14,144,9
		c64-4,109-3,112,3c11,17-5,38-47,61c-62,36-195,41-277,11l-60-22l-92,81c-187,163-300,220-436,220
		C10145,3350,10111,3344,10070,3327z"/>
	<path class="st0" d="M1743,3255c-133-36-249-125-349-267c-31-44-62-82-69-84c-7-3-37,2-66,10c-29,9-90,19-135,23c-71,5-88,3-126-15
		c-68-34-103-115-73-173c19-36,78-75,127-83c81-14,200,23,280,86l37,30l44-17c59-22,101-17,105,13c2,12-2,22-9,22c-15,0-79,48-79,60
		c0,13,111,149,176,215c33,34,80,68,113,83c49,23,69,27,166,27c61,0,129-4,153-9c39-8,42-7,42,12c0,30-35,50-116,67
		C1879,3273,1811,3273,1743,3255z M1219,2849c17-6,31-15,31-21c0-13-97-55-145-63c-33-5-46-2-68,15c-35,28-34,36,6,60
		C1079,2863,1167,2867,1219,2849z"/>
	<path class="st0" d="M10802,3250c-113-40-147-78-67-72c22,1,96,3,165,5c125,2,125,2,187-32c34-18,87-58,117-90
		c72-72,168-200,160-212c-3-5-23-21-45-35c-81-51-32-86,64-45l45,19l28-29c16-17,57-44,92-61c124-61,268-36,315,55
		c37,73-9,152-105,178c-52,14-151,5-224-20c-30-10-59-14-67-10c-8,5-36,40-62,78c-61,91-169,193-245,231
		C11042,3270,10900,3286,10802,3250z M11760,2835l24-25l-20-21c-35-35-85-35-158-1c-36,17-66,35-66,40c0,15,67,30,136,31
		C11729,2860,11740,2857,11760,2835z"/>
	<path class="st0" d="M2439,3058c-75-39-126-100-115-141c8-35,79-102,139-131c43-22,65-26,137-26c101,0,163,16,272,71
		c43,21,82,39,88,39c5,0,33-15,62-34c97-61,240-95,267-63c20,25,9,39-44,53c-28,7-85,29-128,50c-92,43-92,44,52,99
		c110,43,140,43,211,5c30-16,58-29,63-30c13,0,7,55-9,78c-25,36-81,54-169,55c-83,1-92-2-255-76l-56-25l-64,39c-92,56-145,69-275,69
		C2509,3090,2500,3088,2439,3058z M2770,2971c65-25,87-38,78-46c-3-4-39-18-79-32c-127-44-228-42-308,7c-32,20-33,22-15,41
		c9,10,45,28,78,39C2599,3005,2690,3001,2770,2971z"/>
	<path class="st0" d="M9418,3065c-51-27-88-67-88-97c0-23,17-19,94,19c66,33,116,27,244-29l96-42l-79-37c-44-21-102-43-129-50
		c-54-15-69-35-41-55c40-30,154-2,261,65c28,17,56,31,62,31c5,0,48-18,94-40c105-50,183-70,274-70c62,0,81,5,142,36
		c79,39,108,71,118,131c5,35,3,43-27,73c-19,18-59,45-89,59c-47,22-72,26-180,29l-125,4l-104-56l-103-55l-62,31
		C9618,3092,9503,3109,9418,3065z M10302,2972c61-26,67-40,34-68c-61-53-197-57-324-8c-65,24-71,29-58,42c8,8,45,26,83,39
		C10120,3006,10230,3004,10302,2972z"/>
	<path class="st0" d="M746,2854c-39-38,2-124,59-124c52,0,83,68,55,121C846,2875,769,2878,746,2854z"/>
	<path class="st0" d="M11937,2863c-13-12-7-89,9-111c32-46,124-9,124,50c0,45-26,68-79,68C11965,2870,11940,2867,11937,2863z"/>
	<path class="st0" d="M2907,2819c-47-27-39-123,11-136c41-11,65-4,90,24C3065,2771,2982,2862,2907,2819z"/>
	<path class="st0" d="M10690,2810c-59-59-13-154,66-134c53,13,70,81,33,128C10764,2836,10719,2839,10690,2810z"/>
	<path class="st0" d="M2008,2809c-25-14-34-74-15-103c31-46,105-38,133,15c19,38,18,55-6,79C2098,2822,2038,2827,2008,2809z"/>
	<path class="st0" d="M9786,2798c-38-53-1-118,66-118c43,0,68,25,68,68c0,45-30,72-79,72C9811,2820,9797,2814,9786,2798z"/>
	<path class="st0" d="M1344,1920c-70-5-104-20-104-46c0-22,30-44,61-44h29v-142c0-79-3-200-7-269l-6-127l-31-13c-18-8-32-23-34-35
		c-3-19,3-22,50-27c29-4,104-7,166-7c95,0,114,3,119,16c9,24-9,48-46,58l-31,9v118v119h135h135v-106c0-58-4-114-10-124
		c-5-10-23-21-40-25c-23-5-30-12-30-29c0-22,5-23,92-30c114-8,212-8,232,0c37,14,0,74-46,74c-17,0-18,18-18,270v270h29
		c36,0,53,20,49,57l-3,28l-155,3c-178,3-204-4-182-52c7-17,22-29,41-32c35-7,41-23,41-126v-76l-84-7c-46-4-107-4-135,0l-51,7v94
		c0,67,4,96,13,98c6,3,24,7,40,10c23,6,27,11,27,42c0,19-6,36-12,39C1555,1922,1417,1925,1344,1920z"/>
	<path class="st0" d="M3256,1908c-8-13-35-70-59-128c-25-58-62-141-83-185l-37-80l-18,95c-11,52-23,121-28,154c-8,58-8,58,20,68
		c31,10,42,31,34,59c-9,27-33,30-185,27l-135-3l-3-33c-3-29,0-35,28-45c17-6,33-21,35-32c76-346,138-601,148-607c6-4,27-8,45-8
		c42,0,49,12,148,250c43,105,81,190,85,190c7,0,78-185,132-340l32-95l47-3c39-3,49,0,58,18c6,12,42,142,80,288
		c80,314,82,320,115,332c31,12,44,55,23,77c-22,22-215,20-237-2c-25-24,4-69,47-73c25-3,32-7,28-20c-3-9-19-75-37-147
		c-17-71-35-134-40-139c-4-5-14,13-23,40c-15,49-111,276-141,334C3316,1937,3277,1941,3256,1908z"/>
	<path class="st0" d="M3990,1917c-21-10-45-62-137-292c-62-154-121-291-131-304c-10-14-32-33-48-41c-32-18-43-48-22-61
		c7-5,64-9,126-9h112v29c0,23-5,30-26,35c-22,6-25,11-21,34c3,15,13,44,21,65l16,37h108h108l17-53c22-68,22-64-13-82
		c-32-17-40-49-14-59c20-8,288-8,308,0c26,10,19,42-12,58c-38,20-109,166-262,539c-29,71-66,117-94,117
		C4020,1930,4004,1924,3990,1917z"/>
	<path class="st0" d="M8460,1921c-55-8-70-17-70-40s20-40,57-50c25-7,29-13,36-67c13-93-1-342-21-384c-22-46-71-70-144-70
		c-46,0-62,5-87,26c-17,14-35,42-40,62c-13,51-25,329-17,386c6,39,11,46,30,46c12,0,27,5,34,12c17,17,15,65-4,72c-26,10-271,7-298-4
		c-44-16-24-72,29-82c19-3,21-16,31-248c6-135,16-256,21-270c15-34,54-75,94-96c28-15,57-19,159-19c121,0,127,1,192,33
		c110,54,123,94,134,401l7,187l28,17c31,17,39,56,17,75C8631,1921,8516,1929,8460,1921z"/>
	<path class="st0" d="M8913,1920c-60-13-94-33-140-83c-65-70-79-167-38-248c23-43,63-64,186-94c60-15,120-36,134-47
		c37-29,34-79-7-123c-39-42-78-54-133-43c-59,13-84,36-98,93c-11,47-14,50-46,53c-20,2-37-2-42-10c-5-7-9-54-9-104v-91l48-14
		c29-9,95-14,172-14c118,0,128,2,171,27c97,57,134,125,127,239c-6,113-46,148-205,180c-53,11-108,26-121,35c-52,34-48,110,9,139
		c35,19,100,19,143,1c27-11,35-22,44-59c13-50,37-66,61-42c11,11,17,40,19,99l4,83l-34,12C9115,1925,8966,1932,8913,1920z"/>
	<path class="st0" d="M9451,1922c-86-1-150-7-158-14c-16-13-18-124-3-163c8-21,16-26,36-23c29,3,39,17,49,61c5,26,8,27,70,27h65
		v-222c0-271-3-288-42-311c-21-12-29-23-26-39c3-22,7-23,118-26c63-2,139,0,168,3c47,6,53,9,50,28c-2,13-16,28-35,36l-31,14l-7,101
		c-3,56-5,171-3,256l3,155l63,3c66,3,64,4,76-50c4-19,15-30,32-34c40-10,54,12,61,103c6,81,5,82-18,87
		C9885,1921,9623,1926,9451,1922z"/>
	<path class="st0" d="M11872,1919c-126-22-192-101-192-229c0-71,17-119,53-147c14-11,70-30,124-43c172-40,204-69,164-149
		c-37-71-119-93-199-52c-38,19-53,43-66,104c-5,22-12,27-35,27c-26,0-29-4-35-46c-12-90-8-153,12-162c63-33,205-43,306-22
		c169,35,262,241,164,365c-27,35-68,52-171,71c-105,20-146,40-162,78c-35,83,87,148,184,98c28-14,37-26,45-62c12-48,30-59,60-37
		c19,14,34,78,35,148c1,33-2,37-36,47C12068,1924,11933,1930,11872,1919z"/>
	<path class="st0" d="M591,1901c-16-29,1-58,42-69l32-8l3-192c2-173-5-299-24-391l-7-34l189,6c104,3,207,11,229,17
		c56,17,119,85,134,144c12,50,7,104-15,147c-14,27-63,74-86,81c-8,3-2,14,19,32c65,55,81,170,31,223c-49,53-67,56-309,61
		C606,1922,602,1922,591,1901z M970,1795c24-22,25-55,4-98c-21-41-31-47-76-47h-38v48c0,26-3,65-7,86l-6,39l52-5
		C928,1815,959,1805,970,1795z M955,1527c102-58,51-238-63-225l-27,3l-3,123l-3,122h28C902,1550,933,1540,955,1527z"/>
	<path class="st0" d="M2387,1902c-22-24-57-104-142-327c-88-232-95-246-145-286c-57-46-53-66,13-73c130-13,176-14,193-2
		c30,22,8,59-49,79c-5,1,1,28,13,60l21,57h108h107l17-52l17-52l-32-33c-17-18-28-36-24-40c10-10,128-22,234-22c92-1,92-1,92,24
		c0,16-13,39-32,59c-33,33-80,128-212,436c-39,91-75,171-79,178C2475,1927,2406,1923,2387,1902z"/>
	<path class="st0" d="M4447,1913c-11-11-8-58,5-71c7-7,25-12,42-12h29l-6-247c-4-137-9-258-13-270c-3-12-17-24-30-27
		c-28-7-44-53-23-67c8-5,67-9,132-9h117v29c0,25-6,31-34,41l-34,11l-4,192c-2,106-4,193-3,194c0,1,48-57,106-130
		c233-291,313-365,381-355l23,3l6,250c3,138,7,280,8,318c1,53,4,67,16,67c30,0,75,30,75,50c0,31-32,40-142,40c-123,0-149-11-133-57
		c8-22,17-29,43-31l32-3v-182c0-101-4-177-9-172c-28,32-217,264-275,338c-38,49-80,93-93,98C4635,1921,4457,1923,4447,1913z"/>
	<path class="st0" d="M5263,1904c-11-29,10-69,38-72c25-3,26-7,33-79c8-97,8-391,0-432c-5-22-14-33-31-37c-22-6-43-38-43-65
		c0-6,65-8,168-7c165,3,167,3,170,26c3,16-5,27-27,40c-17,9-34,24-38,32c-10,23-16,430-6,474c7,34,14,41,41,48c29,8,32,12,32,48v40
		h-165C5292,1920,5269,1918,5263,1904z"/>
	<path class="st0" d="M5900,1880c0-37,3-41,30-47c22-4,32-13,38-32c9-34,9-448,0-482c-6-18-16-28-37-32c-46-10-52-59-8-71
		c29-8,266-7,295,0c43,12,24,56-31,69c-16,4-29,16-32,29c-3,11-4,129-3,260c3,201,5,240,18,246c65,30,75,38,78,59c2,13-2,28-10,32
		c-7,5-86,9-175,9h-163V1880z"/>
	<path class="st0" d="M6287,1913c-26-25,11-83,51-83h22v-269v-269l-27-7c-36-9-53-23-53-45s43-30,168-30h93l-3,28c-2,19-12,31-36,41
		c-18,8-35,24-38,35c-2,12-3,98-2,193l3,172l178-214c98-118,193-226,212-241c21-16,53-28,80-32l45-5v224c0,123,3,267,6,319l7,95
		l47,15c38,13,49,13,59,3c6-7,25-13,41-13h30v-262c-1-209-4-268-15-288c-8-14-14-36-15-49v-24l208,5c314,8,380,31,460,155
		c57,89,78,246,47,351c-21,69-82,144-141,173c-48,23-50,23-479,23l-430,1l-3-26c-4-34,21-59,59-59h29l-1-152c-1-221,0-218-85-117
		c-39,46-115,140-169,209s-105,131-113,138C6505,1921,6299,1926,6287,1913z M7556,1809c88-22,130-109,122-253c-4-74-8-91-38-140
		c-51-83-95-110-190-114l-77-4l-6,198c-4,108-7,226-7,261v63h76C7477,1820,7531,1815,7556,1809z"/>
	<path class="st0" d="M9958,1914c-5-4-8-20-8-35c0-30,23-49,59-49c20,0,21-6,21-83c0-46-3-165-7-265l-6-182l-34-20
		c-36-21-44-54-15-67c20-10,317-1,327,9c14,14-6,45-39,60l-33,16l-6,93c-4,50-7,168-7,261v168h55c73,0,95-21,95-90
		c0-65-42-117-98-122c-32-3-37-7-40-31c-2-18,6-39,26-65c15-20,48-73,71-116c24-43,59-103,77-132l35-54h87c48,0,102,4,119,9
		c20,6,35,6,38,0c7-10,294-13,319-3c19,7,21,37,4,52c-7,5-24,12-38,14c-16,2-27,12-31,28c-9,32-9,447,0,479c7,25,11,28,70,55
		c29,14,36,14,54,1c12-8,31-15,44-15c32,0,36-38,31-294c-4-184-8-227-23-258c-34-70-35-70,240-66c145,2,248,7,253,13
		c6,6,12,47,14,93l5,82h-40c-37,0-40-2-60-50l-21-50h-93h-93v115v115h53c57,0,77-12,77-46c0-28,23-46,52-42c22,3,23,6,26,119
		c2,93,0,119-12,128c-22,18-50,5-62-27c-9-23-19-30-50-35c-88-15-84-19-84,93v100h68c95,0,112-6,112-40c0-27,22-60,40-60
		c16,0,38,30,44,57c17,90,17,110,1,127c-15,14-62,16-446,16c-278,0-437-4-450-10c-10-6-19-19-19-30c0-21,35-50,61-50
		c12,0,18-13,23-46c8-60,8-295-1-403c-6-82-7-83-39-97c-18-7-34-19-37-26c-4-9-8-10-14-3c-4,6-20,18-36,28c-15,10-66,77-114,149
		c-77,119-84,133-68,143c77,44,105,98,105,204c0,56-3,65-33,98l-34,36l-254,5C10079,1920,9962,1919,9958,1914z"/>
	<path class="st0" d="M5660,943c-14-2-73-15-131-28c-142-34-346-35-456-4c-40,11-78,17-84,13c-16-10-4-56,31-113
		c50-81,164-151,248-151c27,0,33-3,22-10c-8-5-28-10-43-10c-25,0-28-3-25-27c2-22,17-34,78-67l75-41h115h115l151,77
		c149,75,234,110,304,122c21,4,6-5-35-20c-88-33-130-60-178-113c-46-51-49-87-9-98c15-5,68-8,117-7c76,0,99,4,150,27
		c32,15,74,39,92,53c39,30,93,105,93,131c0,11,3,14,8,7c15-22,58-44,85-44c60,0,117,54,117,110c0,34-28,78-60,95
		c-51,26-88,17-142-33c-26-24-29-24-46-9c-30,27-217,116-279,132C5920,949,5727,954,5660,943z"/>
	<path class="st0" d="M6855,944c-128-33-296-111-322-151c-24-36-4-48,112-68c150-26,215-49,388-139l159-81h112c109,0,114,1,188,38
		c42,20,78,44,82,52c9,25-5,45-31,45c-13,0-21,4-18,10s12,10,20,10s39,9,69,21c99,36,196,147,196,222c0,32-1,32-92,7
		c-112-31-318-28-458,6c-80,20-138,27-245,29C6938,947,6866,947,6855,944z"/>
	<path class="st0" d="M4236,799c-39-30-35-66,9-85c19-7,49-14,67-14c27,0,36-6,48-33c26-55,68-69,190-63c58,3,131,12,163,21l57,16
		l81-36c61-27,93-35,137-35c106,0,113,39,10,60c-34,6-74,18-88,25l-25,14l33,11c22,8,32,18,32,32c0,19-4,20-52,13
		c-80-12-89-10-190,36c-86,40-100,44-188,47c-94,4-96,3-135-28l-40-32l-11,28c-11,26-33,42-60,43C4268,820,4251,811,4236,799z"/>
	<path class="st0" d="M8231,809c-30-5-96-28-147-50c-85-37-99-40-165-37c-85,4-103-13-43-38c45-19,37-26-51-44c-75-15-95-26-95-49
		c0-43,123-32,239,20c53,24,70,28,95,20c47-15,168-31,228-31c113,1,176,60,147,137C8414,802,8338,828,8231,809z"/>
	<path class="st0" d="M1120,770c-381-8-581-17-605-26c-26-10-18-42,13-48c15-3,788-8,1717-11c930-4,1721-11,1758-15
		c60-7,86-18,203-85c151-87,190-103,274-112c65-6,184,16,263,49c38,17,47,25,45,42c-4,30-51,32-141,7c-133-38-192-26-394,79
		c-72,38-151,75-175,82c-27,8-113,13-233,14c-104,1-305,7-445,13C3081,773,1594,781,1120,770z"/>
	<path class="st0" d="M9770,769c-256-4-589-12-740-17c-320-10-331-13-520-117c-63-35-135-69-160-75c-75-20-190-3-272,41
		c-24,12-88,12-88-1c0-5-13-10-29-10c-39,0-81-41-81-79c0-32,43-76,64-64c30,17,46,39,46,65c0,36,10,36,103-2c66-26,88-30,175-30
		c128,0,169,13,312,99c67,41,137,76,166,82c53,12,1464,26,2772,28c491,1,750,5,763,11c24,13,25,36,2,45
		C12222,769,10585,785,9770,769z"/>
	<path class="st0" d="M6528,714c-5-4-8-22-8-40c0-44,50-108,124-159l58-40l124-3c163-5,183,10,127,88c-38,52-105,96-193,127
		C6686,712,6542,729,6528,714z"/>
	<path class="st0" d="M5025,506c-17-12-18-16-5-31c18-22,110-64,228-104c72-25,106-31,174-31c91,0,168,18,199,46c41,37,11,43-112,23
		c-98-17-175-2-309,60C5086,523,5056,529,5025,506z"/>
	<path class="st0" d="M7655,491c-27-10-84-32-126-49c-96-40-168-48-264-32c-80,14-108,10-99-14c11-29,113-58,204-59
		c72,0,99,5,175,32c211,77,258,103,239,132C7775,516,7709,511,7655,491z"/>
</g>
</svg>
